<svg width="53" height="53" viewBox="0 0 53 53" fill="none" xmlns="http://www.w3.org/2000/svg">
<path d="M43.4138 12.5172H10.5862C10.2626 12.5172 10 12.7792 10 13.1034V38.8965C10 39.2207 10.2626 39.4827 10.5862 39.4827H43.4138C43.7374 39.4827 44 39.2207 44 38.8965V13.1034C44 12.7792 43.7374 12.5172 43.4138 12.5172ZM42.8276 38.3103H11.1724V13.6896H42.8276V38.3103Z" fill="white"/>
<path d="M19.3793 25.4946C21.1796 25.4946 22.6439 24.0303 22.6439 22.2306C22.6439 20.4298 21.1796 18.9655 19.3793 18.9655C17.5791 18.9655 16.1147 20.4298 16.1147 22.23C16.1147 24.0303 17.5791 25.4946 19.3793 25.4946ZM19.3793 20.1379C20.533 20.1379 21.4715 21.077 21.4715 22.23C21.4715 23.3831 20.533 24.3222 19.3793 24.3222C18.2257 24.3222 17.2872 23.3837 17.2872 22.2306C17.2872 21.0776 18.2257 20.1379 19.3793 20.1379Z" fill="white"/>
<path d="M14.1036 35.9655C14.2408 35.9655 14.3791 35.9174 14.4905 35.8195L24.0533 27.4004L30.0924 33.4389C30.3216 33.6681 30.6921 33.6681 30.9213 33.4389C31.1505 33.2097 31.1505 32.8393 30.9213 32.61L28.1034 29.7922L33.4854 23.8984L40.0866 29.9498C40.3252 30.1685 40.6963 30.1521 40.915 29.9135C41.1336 29.6749 41.1178 29.3038 40.8786 29.0852L33.8441 22.6369C33.7292 22.532 33.5762 22.4798 33.4221 22.4833C33.2667 22.4904 33.1202 22.5589 33.0152 22.6738L27.2739 28.9621L24.4935 26.1817C24.2743 25.963 23.9237 25.9519 23.6916 26.1559L13.7161 34.939C13.4728 35.153 13.4494 35.5235 13.6634 35.7668C13.7794 35.8987 13.9412 35.9655 14.1036 35.9655Z" fill="white"/>
</svg>
