<svg width="53" height="53" viewBox="0 0 53 53" fill="none" xmlns="http://www.w3.org/2000/svg">
<path d="M0.448276 15.6897H25.5517C25.7992 15.6897 26 15.8901 26 16.138V35.8621C26 36.11 25.7992 36.3104 25.5517 36.3104H0.448276C0.200827 36.3104 -1.19209e-07 36.11 -1.19209e-07 35.8621V16.138C-1.19209e-07 15.8901 0.200827 15.6897 0.448276 15.6897ZM0.896552 35.4138H25.1034V16.5862H0.896552V35.4138Z" fill="white"/>
<path d="M18.8278 25.6136C17.4511 25.6136 16.3313 24.4938 16.3313 23.1176C16.3313 21.7405 17.4511 20.6207 18.8278 20.6207C20.2044 20.6207 21.3242 21.7405 21.3242 23.1172C21.3242 24.4938 20.2044 25.6136 18.8278 25.6136ZM18.8278 21.5173C17.9456 21.5173 17.2279 22.2354 17.2279 23.1172C17.2279 23.9989 17.9456 24.7171 18.8278 24.7171C19.71 24.7171 20.4277 23.9994 20.4277 23.1176C20.4277 22.2359 19.71 21.5173 18.8278 21.5173Z" fill="white"/>
<path d="M22.862 33.6207C22.7571 33.6207 22.6513 33.5839 22.5662 33.5091L15.2534 27.0709L10.6353 31.6886C10.46 31.8639 10.1767 31.8639 10.0014 31.6886C9.82617 31.5133 9.82617 31.23 10.0014 31.0548L12.1563 28.8999L8.04069 24.3929L2.99265 29.0205C2.81021 29.1877 2.52645 29.1751 2.35924 28.9927C2.19203 28.8102 2.20414 28.5265 2.38703 28.3593L7.76634 23.4282C7.85421 23.348 7.9712 23.3081 8.0891 23.3108C8.20789 23.3162 8.31996 23.3686 8.4002 23.4565L12.7906 28.2651L14.9168 26.139C15.0844 25.9718 15.3525 25.9632 15.53 26.1192L23.1583 32.8358C23.3444 32.9994 23.3623 33.2827 23.1987 33.4687C23.1099 33.5696 22.9862 33.6207 22.862 33.6207Z" fill="white"/>
<path d="M35.3103 18.8621H52.6897C52.861 18.8621 53 19.0008 53 19.1724V32.8276C53 32.9992 52.861 33.1379 52.6897 33.1379H35.3103C35.139 33.1379 35 32.9992 35 32.8276V19.1724C35 19.0008 35.139 18.8621 35.3103 18.8621ZM35.6207 32.5172H52.3793V19.4828H35.6207V32.5172Z" fill="white"/>
<path d="M48.0344 25.7325C47.0813 25.7325 46.3061 24.9573 46.3061 24.0045C46.3061 23.0511 47.0813 22.2759 48.0344 22.2759C48.9875 22.2759 49.7627 23.0511 49.7627 24.0042C49.7627 24.9573 48.9875 25.7325 48.0344 25.7325ZM48.0344 22.8966C47.4236 22.8966 46.9268 23.3937 46.9268 24.0042C46.9268 24.6146 47.4236 25.1118 48.0344 25.1118C48.6451 25.1118 49.142 24.6149 49.142 24.0045C49.142 23.3941 48.6451 22.8966 48.0344 22.8966Z" fill="white"/>
<path d="M50.8277 31.2759C50.7551 31.2759 50.6818 31.2504 50.6228 31.1986L45.5602 26.7414L42.363 29.9383C42.2417 30.0597 42.0455 30.0597 41.9242 29.9383C41.8028 29.817 41.8028 29.6208 41.9242 29.4995L43.416 28.0077L40.5667 24.8874L37.072 28.0911C36.9456 28.2069 36.7492 28.1982 36.6334 28.0719C36.5177 27.9456 36.5261 27.7491 36.6527 27.6334L40.3768 24.2196C40.4376 24.164 40.5186 24.1364 40.6003 24.1383C40.6825 24.142 40.7601 24.1783 40.8156 24.2391L43.8552 27.5682L45.3271 26.0962C45.4432 25.9805 45.6288 25.9746 45.7517 26.0826L51.0328 30.7325C51.1616 30.8458 51.174 31.0419 51.0607 31.1707C50.9993 31.2405 50.9136 31.2759 50.8277 31.2759Z" fill="white"/>
</svg>
