<svg width="53" height="53" viewBox="0 0 53 53" fill="none" xmlns="http://www.w3.org/2000/svg">
<path d="M52.5517 15.6897H27.4483C27.2008 15.6897 27 15.8901 27 16.138V35.8621C27 36.11 27.2008 36.3104 27.4483 36.3104H52.5517C52.7992 36.3104 53 36.11 53 35.8621V16.138C53 15.8901 52.7992 15.6897 52.5517 15.6897ZM52.1034 35.4138H27.8966V16.5862H52.1034V35.4138Z" fill="white"/>
<path d="M34.1722 25.6136C35.5489 25.6136 36.6687 24.4938 36.6687 23.1176C36.6687 21.7405 35.5489 20.6207 34.1722 20.6207C32.7956 20.6207 31.6758 21.7405 31.6758 23.1172C31.6758 24.4938 32.7956 25.6136 34.1722 25.6136ZM34.1722 21.5173C35.0544 21.5173 35.7721 22.2354 35.7721 23.1172C35.7721 23.9989 35.0544 24.7171 34.1722 24.7171C33.29 24.7171 32.5723 23.9994 32.5723 23.1176C32.5723 22.2359 33.29 21.5173 34.1722 21.5173Z" fill="white"/>
<path d="M30.138 33.6207C30.2429 33.6207 30.3487 33.5839 30.4338 33.5091L37.7466 27.0709L42.3647 31.6886C42.54 31.8639 42.8233 31.8639 42.9986 31.6886C43.1738 31.5133 43.1738 31.23 42.9986 31.0548L40.8437 28.8999L44.9593 24.3929L50.0073 29.0205C50.1898 29.1877 50.4736 29.1751 50.6408 28.9927C50.808 28.8102 50.7959 28.5265 50.613 28.3593L45.2337 23.4282C45.1458 23.348 45.0288 23.3081 44.9109 23.3108C44.7921 23.3162 44.68 23.3686 44.5998 23.4565L40.2094 28.2651L38.0832 26.139C37.9156 25.9718 37.6475 25.9632 37.47 26.1192L29.8417 32.8358C29.6556 32.9994 29.6377 33.2827 29.8013 33.4687C29.8901 33.5696 30.0138 33.6207 30.138 33.6207Z" fill="white"/>
<path d="M17.6897 18.8621H0.310345C0.139034 18.8621 0 19.0008 0 19.1724V32.8276C0 32.9992 0.139034 33.1379 0.310345 33.1379H17.6897C17.861 33.1379 18 32.9992 18 32.8276V19.1724C18 19.0008 17.861 18.8621 17.6897 18.8621ZM17.3793 32.5172H0.62069V19.4828H17.3793V32.5172Z" fill="white"/>
<path d="M4.96562 25.7325C5.91868 25.7325 6.69393 24.9573 6.69393 24.0045C6.69393 23.0511 5.91868 22.2759 4.96562 22.2759C4.01255 22.2759 3.2373 23.0511 3.2373 24.0042C3.2373 24.9573 4.01255 25.7325 4.96562 25.7325ZM4.96562 22.8966C5.57637 22.8966 6.07324 23.3937 6.07324 24.0042C6.07324 24.6146 5.57637 25.1118 4.96562 25.1118C4.35486 25.1118 3.85799 24.6149 3.85799 24.0045C3.85799 23.3941 4.35486 22.8966 4.96562 22.8966Z" fill="white"/>
<path d="M2.17233 31.2759C2.24495 31.2759 2.31819 31.2504 2.37715 31.1986L7.43981 26.7414L10.637 29.9383C10.7583 30.0597 10.9545 30.0597 11.0758 29.9383C11.1972 29.817 11.1972 29.6208 11.0758 29.4995L9.58398 28.0077L12.4333 24.8874L15.928 28.0911C16.0544 28.2069 16.2508 28.1982 16.3666 28.0719C16.4823 27.9456 16.4739 27.7491 16.3473 27.6334L12.6232 24.2196C12.5624 24.164 12.4814 24.1364 12.3997 24.1383C12.3175 24.142 12.2399 24.1783 12.1844 24.2391L9.14484 27.5682L7.67288 26.0962C7.55681 25.9805 7.37122 25.9746 7.24833 26.0826L1.96719 30.7325C1.83839 30.8458 1.82598 31.0419 1.93926 31.1707C2.0007 31.2405 2.08636 31.2759 2.17233 31.2759Z" fill="white"/>
</svg>
