<svg width="53" height="53" viewBox="0 0 53 53" fill="none" xmlns="http://www.w3.org/2000/svg">
<path d="M6.02282 22.6243V21.6016L10.8808 19.3572V20.6179L7.42907 22.0987L7.46813 22.0312V22.1946L7.42907 22.1271L10.8808 23.608V24.8686L6.02282 22.6243ZM15.2407 19.5455V20.5398H12.0162V19.5455H15.2407ZM12.8224 25V19.0305C12.8224 18.6636 12.8981 18.3582 13.0496 18.1143C13.2035 17.8705 13.4095 17.6882 13.6675 17.5675C13.9256 17.4467 14.212 17.3864 14.5269 17.3864C14.7494 17.3864 14.9471 17.4041 15.1199 17.4396C15.2928 17.4751 15.4206 17.5071 15.5035 17.5355L15.2478 18.5298C15.1933 18.5133 15.1247 18.4967 15.0418 18.4801C14.959 18.4612 14.8666 18.4517 14.7648 18.4517C14.5257 18.4517 14.3564 18.5097 14.257 18.6257C14.1599 18.7393 14.1114 18.9027 14.1114 19.1158V25H12.8224ZM18.4216 25.1065C17.8889 25.1065 17.4273 24.9893 17.0367 24.755C16.646 24.5206 16.343 24.1927 16.1276 23.7713C15.9145 23.3499 15.808 22.8575 15.808 22.294C15.808 21.7306 15.9145 21.237 16.1276 20.8132C16.343 20.3894 16.646 20.0604 17.0367 19.826C17.4273 19.5916 17.8889 19.4744 18.4216 19.4744C18.9543 19.4744 19.4159 19.5916 19.8066 19.826C20.1972 20.0604 20.499 20.3894 20.7121 20.8132C20.9275 21.237 21.0352 21.7306 21.0352 22.294C21.0352 22.8575 20.9275 23.3499 20.7121 23.7713C20.499 24.1927 20.1972 24.5206 19.8066 24.755C19.4159 24.9893 18.9543 25.1065 18.4216 25.1065ZM18.4287 24.0767C18.7175 24.0767 18.959 23.9974 19.1531 23.8388C19.3473 23.6778 19.4917 23.4624 19.5864 23.1925C19.6834 22.9226 19.732 22.6219 19.732 22.2905C19.732 21.9567 19.6834 21.6548 19.5864 21.3849C19.4917 21.1127 19.3473 20.8961 19.1531 20.7351C18.959 20.5741 18.7175 20.4936 18.4287 20.4936C18.1328 20.4936 17.8866 20.5741 17.6901 20.7351C17.4959 20.8961 17.3503 21.1127 17.2533 21.3849C17.1586 21.6548 17.1112 21.9567 17.1112 22.2905C17.1112 22.6219 17.1586 22.9226 17.2533 23.1925C17.3503 23.4624 17.4959 23.6778 17.6901 23.8388C17.8866 23.9974 18.1328 24.0767 18.4287 24.0767ZM24.5056 25.1065C23.9729 25.1065 23.5113 24.9893 23.1206 24.755C22.73 24.5206 22.427 24.1927 22.2116 23.7713C21.9985 23.3499 21.892 22.8575 21.892 22.294C21.892 21.7306 21.9985 21.237 22.2116 20.8132C22.427 20.3894 22.73 20.0604 23.1206 19.826C23.5113 19.5916 23.9729 19.4744 24.5056 19.4744C25.0383 19.4744 25.4999 19.5916 25.8905 19.826C26.2812 20.0604 26.583 20.3894 26.7961 20.8132C27.0115 21.237 27.1192 21.7306 27.1192 22.294C27.1192 22.8575 27.0115 23.3499 26.7961 23.7713C26.583 24.1927 26.2812 24.5206 25.8905 24.755C25.4999 24.9893 25.0383 25.1065 24.5056 25.1065ZM24.5127 24.0767C24.8015 24.0767 25.043 23.9974 25.2371 23.8388C25.4313 23.6778 25.5757 23.4624 25.6704 23.1925C25.7674 22.9226 25.816 22.6219 25.816 22.2905C25.816 21.9567 25.7674 21.6548 25.6704 21.3849C25.5757 21.1127 25.4313 20.8961 25.2371 20.7351C25.043 20.5741 24.8015 20.4936 24.5127 20.4936C24.2168 20.4936 23.9706 20.5741 23.7741 20.7351C23.5799 20.8961 23.4343 21.1127 23.3373 21.3849C23.2426 21.6548 23.1952 21.9567 23.1952 22.2905C23.1952 22.6219 23.2426 22.9226 23.3373 23.1925C23.4343 23.4624 23.5799 23.6778 23.7741 23.8388C23.9706 23.9974 24.2168 24.0767 24.5127 24.0767ZM30.934 19.5455V20.5398H27.7984V19.5455H30.934ZM28.5725 18.2386H29.858V23.3594C29.858 23.5322 29.8841 23.6648 29.9362 23.7571C29.9906 23.8471 30.0616 23.9086 30.1492 23.9418C30.2368 23.9749 30.3339 23.9915 30.4404 23.9915C30.5209 23.9915 30.5943 23.9856 30.6606 23.9737C30.7293 23.9619 30.7813 23.9512 30.8169 23.9418L31.0335 24.9467C30.9648 24.9704 30.8666 24.9964 30.7387 25.0249C30.6133 25.0533 30.4594 25.0698 30.2771 25.0746C29.9551 25.084 29.6651 25.0355 29.407 24.929C29.149 24.8201 28.9442 24.652 28.7927 24.4247C28.6436 24.1974 28.5702 23.9134 28.5725 23.5724V18.2386ZM34.3653 25.1065C33.8184 25.1065 33.3461 24.9929 32.9484 24.7656C32.5531 24.536 32.2488 24.2116 32.0358 23.7926C31.8227 23.3712 31.7162 22.8752 31.7162 22.3047C31.7162 21.7436 31.8227 21.2512 32.0358 20.8274C32.2512 20.4013 32.5519 20.0698 32.9378 19.8331C33.3237 19.594 33.777 19.4744 34.2979 19.4744C34.634 19.4744 34.9513 19.5289 35.2496 19.6378C35.5502 19.7443 35.8154 19.91 36.045 20.1349C36.277 20.3598 36.4593 20.6463 36.5919 20.9943C36.7245 21.34 36.7907 21.7519 36.7907 22.2301V22.6243H32.3199V21.7578H35.5585C35.5561 21.5116 35.5029 21.2926 35.3987 21.1009C35.2945 20.9067 35.1489 20.754 34.9619 20.6428C34.7773 20.5315 34.5618 20.4759 34.3156 20.4759C34.0528 20.4759 33.822 20.5398 33.6231 20.6676C33.4243 20.7931 33.2692 20.9588 33.1579 21.1648C33.049 21.3684 32.9934 21.5921 32.991 21.8359V22.5923C32.991 22.9096 33.049 23.1818 33.165 23.4091C33.281 23.634 33.4432 23.8068 33.6515 23.9276C33.8599 24.0459 34.1037 24.1051 34.3831 24.1051C34.5701 24.1051 34.7394 24.0791 34.8909 24.027C35.0424 23.9725 35.1738 23.8932 35.2851 23.7891C35.3963 23.6849 35.4804 23.5559 35.5372 23.402L36.7375 23.5369C36.6617 23.8542 36.5173 24.1312 36.3042 24.3679C36.0935 24.6023 35.8237 24.7846 35.4946 24.9148C35.1655 25.0426 34.7891 25.1065 34.3653 25.1065ZM37.8783 25V19.5455H39.1247V20.4545H39.1816C39.281 20.1397 39.4514 19.897 39.6929 19.7266C39.9368 19.5537 40.2149 19.4673 40.5274 19.4673C40.5985 19.4673 40.6778 19.4709 40.7654 19.478C40.8553 19.4827 40.9299 19.491 40.9891 19.5028V20.6854C40.9346 20.6664 40.8482 20.6499 40.7298 20.6357C40.6138 20.6191 40.5014 20.6108 40.3925 20.6108C40.1581 20.6108 39.9474 20.6617 39.7604 20.7635C39.5757 20.8629 39.4301 21.0014 39.3236 21.179C39.2171 21.3565 39.1638 21.5613 39.1638 21.7933V25H37.8783ZM46.9745 22.6243L42.1166 24.8686V23.608L45.5683 22.1271L45.5292 22.1946V22.0312L45.5683 22.0987L42.1166 20.6179V19.3572L46.9745 21.6016V22.6243ZM4.12828 34.6243V33.6016L8.98624 31.3572V32.6179L5.53453 34.0987L5.5736 34.0312V34.1946L5.53453 34.1271L8.98624 35.608V36.8686L4.12828 34.6243ZM13.5521 29.3864L11.2084 38.0938H10.0827L12.4264 29.3864H13.5521ZM17.1352 31.5455V32.5398H13.9108V31.5455H17.1352ZM14.7169 37V31.0305C14.7169 30.6636 14.7926 30.3582 14.9442 30.1143C15.098 29.8705 15.304 29.6882 15.5621 29.5675C15.8201 29.4467 16.1066 29.3864 16.4214 29.3864C16.644 29.3864 16.8416 29.4041 17.0145 29.4396C17.1873 29.4751 17.3151 29.5071 17.398 29.5355L17.1423 30.5298C17.0879 30.5133 17.0192 30.4967 16.9363 30.4801C16.8535 30.4612 16.7612 30.4517 16.6594 30.4517C16.4202 30.4517 16.251 30.5097 16.1515 30.6257C16.0545 30.7393 16.0059 30.9027 16.0059 31.1158V37H14.7169ZM20.3161 37.1065C19.7835 37.1065 19.3218 36.9893 18.9312 36.755C18.5406 36.5206 18.2375 36.1927 18.0221 35.7713C17.809 35.3499 17.7025 34.8575 17.7025 34.294C17.7025 33.7306 17.809 33.237 18.0221 32.8132C18.2375 32.3894 18.5406 32.0604 18.9312 31.826C19.3218 31.5916 19.7835 31.4744 20.3161 31.4744C20.8488 31.4744 21.3105 31.5916 21.7011 31.826C22.0917 32.0604 22.3936 32.3894 22.6066 32.8132C22.8221 33.237 22.9298 33.7306 22.9298 34.294C22.9298 34.8575 22.8221 35.3499 22.6066 35.7713C22.3936 36.1927 22.0917 36.5206 21.7011 36.755C21.3105 36.9893 20.8488 37.1065 20.3161 37.1065ZM20.3232 36.0767C20.6121 36.0767 20.8535 35.9974 21.0477 35.8388C21.2418 35.6778 21.3862 35.4624 21.4809 35.1925C21.578 34.9226 21.6265 34.6219 21.6265 34.2905C21.6265 33.9567 21.578 33.6548 21.4809 33.3849C21.3862 33.1127 21.2418 32.8961 21.0477 32.7351C20.8535 32.5741 20.6121 32.4936 20.3232 32.4936C20.0273 32.4936 19.7811 32.5741 19.5846 32.7351C19.3905 32.8961 19.2449 33.1127 19.1478 33.3849C19.0531 33.6548 19.0058 33.9567 19.0058 34.2905C19.0058 34.6219 19.0531 34.9226 19.1478 35.1925C19.2449 35.4624 19.3905 35.6778 19.5846 35.8388C19.7811 35.9974 20.0273 36.0767 20.3232 36.0767ZM26.4001 37.1065C25.8675 37.1065 25.4058 36.9893 25.0152 36.755C24.6246 36.5206 24.3215 36.1927 24.1061 35.7713C23.893 35.3499 23.7865 34.8575 23.7865 34.294C23.7865 33.7306 23.893 33.237 24.1061 32.8132C24.3215 32.3894 24.6246 32.0604 25.0152 31.826C25.4058 31.5916 25.8675 31.4744 26.4001 31.4744C26.9328 31.4744 27.3944 31.5916 27.7851 31.826C28.1757 32.0604 28.4775 32.3894 28.6906 32.8132C28.906 33.237 29.0138 33.7306 29.0138 34.294C29.0138 34.8575 28.906 35.3499 28.6906 35.7713C28.4775 36.1927 28.1757 36.5206 27.7851 36.755C27.3944 36.9893 26.9328 37.1065 26.4001 37.1065ZM26.4072 36.0767C26.6961 36.0767 26.9375 35.9974 27.1317 35.8388C27.3258 35.6778 27.4702 35.4624 27.5649 35.1925C27.662 34.9226 27.7105 34.6219 27.7105 34.2905C27.7105 33.9567 27.662 33.6548 27.5649 33.3849C27.4702 33.1127 27.3258 32.8961 27.1317 32.7351C26.9375 32.5741 26.6961 32.4936 26.4072 32.4936C26.1113 32.4936 25.8651 32.5741 25.6686 32.7351C25.4745 32.8961 25.3289 33.1127 25.2318 33.3849C25.1371 33.6548 25.0898 33.9567 25.0898 34.2905C25.0898 34.6219 25.1371 34.9226 25.2318 35.1925C25.3289 35.4624 25.4745 35.6778 25.6686 35.8388C25.8651 35.9974 26.1113 36.0767 26.4072 36.0767ZM32.8286 31.5455V32.5398H29.6929V31.5455H32.8286ZM30.4671 30.2386H31.7526V35.3594C31.7526 35.5322 31.7786 35.6648 31.8307 35.7571C31.8852 35.8471 31.9562 35.9086 32.0438 35.9418C32.1314 35.9749 32.2284 35.9915 32.335 35.9915C32.4155 35.9915 32.4888 35.9856 32.5551 35.9737C32.6238 35.9619 32.6759 35.9512 32.7114 35.9418L32.928 36.9467C32.8593 36.9704 32.7611 36.9964 32.6333 37.0249C32.5078 37.0533 32.3539 37.0698 32.1716 37.0746C31.8496 37.084 31.5596 37.0355 31.3016 36.929C31.0435 36.8201 30.8387 36.652 30.6872 36.4247C30.5381 36.1974 30.4647 35.9134 30.4671 35.5724V30.2386ZM36.2599 37.1065C35.713 37.1065 35.2407 36.9929 34.843 36.7656C34.4476 36.536 34.1434 36.2116 33.9303 35.7926C33.7172 35.3712 33.6107 34.8752 33.6107 34.3047C33.6107 33.7436 33.7172 33.2512 33.9303 32.8274C34.1457 32.4013 34.4464 32.0698 34.8323 31.8331C35.2182 31.594 35.6715 31.4744 36.1924 31.4744C36.5286 31.4744 36.8458 31.5289 37.1441 31.6378C37.4448 31.7443 37.7099 31.91 37.9395 32.1349C38.1715 32.3598 38.3538 32.6463 38.4864 32.9943C38.619 33.34 38.6853 33.7519 38.6853 34.2301V34.6243H34.2144V33.7578H37.453C37.4507 33.5116 37.3974 33.2926 37.2932 33.1009C37.1891 32.9067 37.0435 32.754 36.8564 32.6428C36.6718 32.5315 36.4564 32.4759 36.2101 32.4759C35.9474 32.4759 35.7165 32.5398 35.5177 32.6676C35.3188 32.7931 35.1637 32.9588 35.0525 33.1648C34.9436 33.3684 34.8879 33.5921 34.8856 33.8359V34.5923C34.8856 34.9096 34.9436 35.1818 35.0596 35.4091C35.1756 35.634 35.3377 35.8068 35.5461 35.9276C35.7544 36.0459 35.9983 36.1051 36.2776 36.1051C36.4646 36.1051 36.6339 36.0791 36.7854 36.027C36.9369 35.9725 37.0683 35.8932 37.1796 35.7891C37.2909 35.6849 37.3749 35.5559 37.4317 35.402L38.632 35.5369C38.5563 35.8542 38.4118 36.1312 38.1988 36.3679C37.9881 36.6023 37.7182 36.7846 37.3891 36.9148C37.06 37.0426 36.6836 37.1065 36.2599 37.1065ZM39.7728 37V31.5455H41.0193V32.4545H41.0761C41.1755 32.1397 41.346 31.897 41.5874 31.7266C41.8313 31.5537 42.1095 31.4673 42.422 31.4673C42.493 31.4673 42.5723 31.4709 42.6599 31.478C42.7499 31.4827 42.8244 31.491 42.8836 31.5028V32.6854C42.8292 32.6664 42.7427 32.6499 42.6244 32.6357C42.5084 32.6191 42.3959 32.6108 42.287 32.6108C42.0526 32.6108 41.8419 32.6617 41.6549 32.7635C41.4703 32.8629 41.3247 33.0014 41.2181 33.179C41.1116 33.3565 41.0583 33.5613 41.0583 33.7933V37H39.7728ZM48.8691 34.6243L44.0111 36.8686V35.608L47.4628 34.1271L47.4237 34.1946V34.0312L47.4628 34.0987L44.0111 32.6179V31.3572L48.8691 33.6016V34.6243Z" fill="white"/>
</svg>
