<svg width="53" height="53" viewBox="0 0 53 53" fill="none" xmlns="http://www.w3.org/2000/svg">
<path d="M14.7414 19.5518H0.258621C0.115862 19.5518 0 19.6674 0 19.8104V31.1897C0 31.3327 0.115862 31.4483 0.258621 31.4483H14.7414C14.8841 31.4483 15 31.3327 15 31.1897V19.8104C15 19.6674 14.8841 19.5518 14.7414 19.5518ZM14.4828 30.9311H0.517241V20.069H14.4828V30.9311Z" fill="white"/>
<path d="M4.13801 25.2771C4.93224 25.2771 5.57827 24.6311 5.57827 23.8371C5.57827 23.0426 4.93224 22.3966 4.13801 22.3966C3.34379 22.3966 2.69775 23.0426 2.69775 23.8369C2.69775 24.6311 3.34379 25.2771 4.13801 25.2771ZM4.13801 22.9138C4.64698 22.9138 5.06103 23.3282 5.06103 23.8369C5.06103 24.3456 4.64698 24.7599 4.13801 24.7599C3.62905 24.7599 3.215 24.3458 3.215 23.8371C3.215 23.3284 3.62905 22.9138 4.13801 22.9138Z" fill="white"/>
<path d="M1.81052 29.8966C1.87103 29.8966 1.93207 29.8754 1.9812 29.8322L6.20008 26.1179L8.8644 28.7819C8.96552 28.883 9.12896 28.883 9.23008 28.7819C9.33121 28.6808 9.33121 28.5174 9.23008 28.4162L7.98689 27.173L10.3613 24.5729L13.2736 27.2426C13.3789 27.3391 13.5426 27.3318 13.6391 27.2266C13.7355 27.1213 13.7285 26.9576 13.623 26.8611L10.5196 24.0163C10.4689 23.97 10.4014 23.947 10.3334 23.9486C10.2648 23.9517 10.2002 23.9819 10.1539 24.0326L7.62095 26.8068L6.39431 25.5802C6.29758 25.4837 6.14293 25.4788 6.04052 25.5688L1.63957 29.4437C1.53224 29.5381 1.52189 29.7016 1.61629 29.8089C1.6675 29.8671 1.73888 29.8966 1.81052 29.8966Z" fill="white"/>
<path d="M33.7414 19.5518H19.2586C19.1159 19.5518 19 19.6674 19 19.8104V31.1897C19 31.3327 19.1159 31.4483 19.2586 31.4483H33.7414C33.8841 31.4483 34 31.3327 34 31.1897V19.8104C34 19.6674 33.8841 19.5518 33.7414 19.5518ZM33.4828 30.9311H19.5172V20.069H33.4828V30.9311Z" fill="white"/>
<path d="M23.138 25.2771C23.9322 25.2771 24.5783 24.6311 24.5783 23.8371C24.5783 23.0426 23.9322 22.3966 23.138 22.3966C22.3438 22.3966 21.6978 23.0426 21.6978 23.8369C21.6978 24.6311 22.3438 25.2771 23.138 25.2771ZM23.138 22.9138C23.647 22.9138 24.061 23.3282 24.061 23.8369C24.061 24.3456 23.647 24.7599 23.138 24.7599C22.629 24.7599 22.215 24.3458 22.215 23.8371C22.215 23.3284 22.629 22.9138 23.138 22.9138Z" fill="white"/>
<path d="M20.8105 29.8966C20.871 29.8966 20.9321 29.8754 20.9812 29.8322L25.2001 26.1179L27.8644 28.7819C27.9655 28.883 28.129 28.883 28.2301 28.7819C28.3312 28.6808 28.3312 28.5174 28.2301 28.4162L26.9869 27.173L29.3613 24.5729L32.2736 27.2426C32.3789 27.3391 32.5426 27.3318 32.6391 27.2266C32.7355 27.1213 32.7285 26.9576 32.623 26.8611L29.5196 24.0163C29.4689 23.97 29.4014 23.947 29.3334 23.9486C29.2648 23.9517 29.2002 23.9819 29.1539 24.0326L26.6209 26.8068L25.3943 25.5802C25.2976 25.4837 25.1429 25.4788 25.0405 25.5688L20.6396 29.4437C20.5322 29.5381 20.5219 29.7016 20.6163 29.8089C20.6675 29.8671 20.7389 29.8966 20.8105 29.8966Z" fill="white"/>
<path d="M52.7414 19.5518H38.2586C38.1159 19.5518 38 19.6674 38 19.8104V31.1897C38 31.3327 38.1159 31.4483 38.2586 31.4483H52.7414C52.8841 31.4483 53 31.3327 53 31.1897V19.8104C53 19.6674 52.8841 19.5518 52.7414 19.5518ZM52.4828 30.9311H38.5172V20.069H52.4828V30.9311Z" fill="white"/>
<path d="M42.138 25.2771C42.9322 25.2771 43.5783 24.6311 43.5783 23.8371C43.5783 23.0426 42.9322 22.3966 42.138 22.3966C41.3438 22.3966 40.6978 23.0426 40.6978 23.8369C40.6978 24.6311 41.3438 25.2771 42.138 25.2771ZM42.138 22.9138C42.647 22.9138 43.061 23.3282 43.061 23.8369C43.061 24.3456 42.647 24.7599 42.138 24.7599C41.629 24.7599 41.215 24.3458 41.215 23.8371C41.215 23.3284 41.629 22.9138 42.138 22.9138Z" fill="white"/>
<path d="M39.8105 29.8966C39.871 29.8966 39.9321 29.8754 39.9812 29.8322L44.2001 26.1179L46.8644 28.7819C46.9655 28.883 47.129 28.883 47.2301 28.7819C47.3312 28.6808 47.3312 28.5174 47.2301 28.4162L45.9869 27.173L48.3613 24.5729L51.2736 27.2426C51.3789 27.3391 51.5426 27.3318 51.6391 27.2266C51.7355 27.1213 51.7285 26.9576 51.623 26.8611L48.5196 24.0163C48.4689 23.97 48.4014 23.947 48.3334 23.9486C48.2648 23.9517 48.2002 23.9819 48.1539 24.0326L45.6209 26.8068L44.3943 25.5802C44.2976 25.4837 44.1429 25.4788 44.0405 25.5688L39.6396 29.4437C39.5322 29.5381 39.5219 29.7016 39.6163 29.8089C39.6675 29.8671 39.7389 29.8966 39.8105 29.8966Z" fill="white"/>
</svg>
