<svg width="53" height="53" viewBox="0 0 53 53" fill="none" xmlns="http://www.w3.org/2000/svg">
<path d="M23.5862 18.4828H0.413793C0.185379 18.4828 0 18.6678 0 18.8966V37.1035C0 37.3323 0.185379 37.5173 0.413793 37.5173H23.5862C23.8146 37.5173 24 37.3323 24 37.1035V18.8966C24 18.6678 23.8146 18.4828 23.5862 18.4828ZM23.1724 36.6897H0.827586V19.3104H23.1724V36.6897Z" fill="white"/>
<path d="M6.62082 27.6434C7.89158 27.6434 8.92523 26.6097 8.92523 25.3394C8.92523 24.0682 7.89158 23.0345 6.62082 23.0345C5.35006 23.0345 4.31641 24.0682 4.31641 25.339C4.31641 26.6097 5.35006 27.6434 6.62082 27.6434ZM6.62082 23.8621C7.43517 23.8621 8.09765 24.525 8.09765 25.339C8.09765 26.1529 7.43517 26.8158 6.62082 26.8158C5.80648 26.8158 5.14399 26.1533 5.14399 25.3394C5.14399 24.5254 5.80648 23.8621 6.62082 23.8621Z" fill="white"/>
<path d="M2.89643 35.0345C2.99326 35.0345 3.09092 35.0006 3.16954 34.9315L9.91974 28.9886L14.1826 33.2511C14.3444 33.4129 14.606 33.4129 14.7677 33.2511C14.9295 33.0893 14.9295 32.8278 14.7677 32.666L12.7786 30.6769L16.5777 26.5166L21.2374 30.7882C21.4058 30.9425 21.6677 30.9309 21.8221 30.7625C21.9764 30.5941 21.9653 30.3322 21.7964 30.1778L16.8309 25.6261C16.7498 25.552 16.6418 25.5152 16.533 25.5177C16.4233 25.5227 16.3199 25.5711 16.2458 25.6522L12.1931 30.0909L10.2305 28.1283C10.0757 27.974 9.8283 27.9661 9.66443 28.1101L2.62292 34.31C2.45119 34.461 2.43464 34.7225 2.58568 34.8942C2.66761 34.9874 2.78181 35.0345 2.89643 35.0345Z" fill="white"/>
<path d="M52.5862 18.4828H29.4138C29.1854 18.4828 29 18.6678 29 18.8966V37.1035C29 37.3323 29.1854 37.5173 29.4138 37.5173H52.5862C52.8146 37.5173 53 37.3323 53 37.1035V18.8966C53 18.6678 52.8146 18.4828 52.5862 18.4828ZM52.1724 36.6897H29.8276V19.3104H52.1724V36.6897Z" fill="white"/>
<path d="M35.6208 27.6434C36.8916 27.6434 37.9252 26.6097 37.9252 25.3394C37.9252 24.0682 36.8916 23.0345 35.6208 23.0345C34.3501 23.0345 33.3164 24.0682 33.3164 25.339C33.3164 26.6097 34.3501 27.6434 35.6208 27.6434ZM35.6208 23.8621C36.4352 23.8621 37.0976 24.525 37.0976 25.339C37.0976 26.1529 36.4352 26.8158 35.6208 26.8158C34.8065 26.8158 34.144 26.1533 34.144 25.3394C34.144 24.5254 34.8065 23.8621 35.6208 23.8621Z" fill="white"/>
<path d="M31.8964 35.0345C31.9933 35.0345 32.0909 35.0006 32.1695 34.9315L38.9197 28.9886L43.1826 33.2511C43.3444 33.4129 43.606 33.4129 43.7677 33.2511C43.9295 33.0893 43.9295 32.8278 43.7677 32.666L41.7786 30.6769L45.5777 26.5166L50.2374 30.7882C50.4058 30.9425 50.6677 30.9309 50.8221 30.7625C50.9764 30.5941 50.9653 30.3322 50.7964 30.1778L45.8309 25.6261C45.7498 25.552 45.6418 25.5152 45.533 25.5177C45.4233 25.5227 45.3199 25.5711 45.2458 25.6522L41.1931 30.0909L39.2305 28.1283C39.0757 27.974 38.8283 27.9661 38.6644 28.1101L31.6229 34.31C31.4512 34.461 31.4346 34.7225 31.5857 34.8942C31.6676 34.9874 31.7818 35.0345 31.8964 35.0345Z" fill="white"/>
</svg>
