<svg width="53" height="53" viewBox="0 0 53 53" fill="none" xmlns="http://www.w3.org/2000/svg">
<path d="M39.9026 17.402L43.0368 14.2514L39.7428 10.9742L36.559 14.1753C35.0139 13.0498 33.27 12.182 31.3901 11.636V9.50877C31.3901 8.12558 30.2645 7 28.8806 7H24.579C23.1958 7 22.0702 8.12558 22.0702 9.50877V11.6359C15.1056 13.6587 10 20.0964 10 27.7046C10 36.9301 17.505 44.4352 26.7297 44.4352C35.9552 44.4352 43.4603 36.9301 43.4603 27.7046C43.4603 23.8219 42.1305 20.244 39.9026 17.402ZM41.8807 28.4845C41.6977 32.0808 40.256 35.3503 37.989 37.861L36.7025 36.5745L35.5996 37.6773L36.8861 38.9639C34.3754 41.2309 31.1059 42.6726 27.5097 42.8556V41.0284H25.9498V42.8556C22.3537 42.6726 19.0845 41.2309 16.574 38.964L17.8607 37.6773L16.7579 36.5745L15.4712 37.8612C13.2043 35.3504 11.7627 32.0809 11.5796 28.4845H13.4067V26.9248H11.5796C11.7626 23.3285 13.2042 20.0591 15.471 17.5486L16.7578 18.8348L17.8606 17.7319L16.5738 16.4457C19.0843 14.179 22.3535 12.7374 25.9498 12.5544V14.3816H27.5096V12.5545C31.1059 12.7375 34.3754 14.1791 36.8861 16.446L35.5995 17.732L36.7024 18.8349L37.989 17.5488C40.256 20.0593 41.6976 23.3285 41.8807 26.9248H40.0535V28.4846H41.8807V28.4845ZM39.7489 13.1798L40.8312 14.2575L38.8813 16.2173C38.5314 15.8474 38.1645 15.4937 37.7824 15.1568L39.7489 13.1798ZM23.63 9.50877C23.63 8.98552 24.0558 8.55983 24.579 8.55983H28.8806C29.4046 8.55983 29.8303 8.98559 29.8303 9.50877V11.264C28.8252 11.0749 27.7891 10.9749 26.7298 10.9749C25.6708 10.9749 24.6349 11.0749 23.63 11.2639V9.50877V9.50877Z" fill="white"/>
<path d="M33.3004 15.2849L34.6363 16.0892L27.3979 28.1068L26.062 27.3025L33.3004 15.2849Z" fill="white"/>
</svg>
