<svg width="53" height="53" viewBox="0 0 53 53" fill="none" xmlns="http://www.w3.org/2000/svg">
<g clip-path="url(#clip0_35_76)">
<path d="M41.6355 11.2316C41.3874 10.3982 40.6876 9.99249 40.1719 9.99249C40.2653 9.99249 22.2499 9.98547 15.486 9.98547C13.9413 9.98547 12.9822 9.98583 12.961 9.98671C12.0798 10.024 11.4927 10.6044 11.3612 11.2316C11.2832 11.6039 11.311 10.9051 11.311 20.4114C11.311 20.4114 11.3097 20.4893 11.3332 20.6837C11.5342 21.6364 12.327 22.0829 13.2733 22.0829C14.9418 22.0829 17.0866 20.6933 17.2988 18.24L17.3095 18.0296L23.1316 18.0115H23.1422H23.1431L23.1447 18.0123H23.1455H23.1464H23.1472H23.148L23.1489 18.0131H23.1497L23.1505 18.014L23.1514 18.0148H23.1521V18.0156H23.153L23.1538 18.0164L23.1546 18.0173L23.1555 18.0181L23.1563 18.0189L23.1571 18.0197L23.158 18.0206L23.1588 18.0214V18.0222L23.1596 18.023V18.0239V18.0247H23.1604V18.0255V18.0263V18.0272V18.028V18.0288V18.0305V18.042V36.4535V36.4618H23.153H21.5278L21.4271 36.4643C20.3367 36.546 19.5366 37.2327 19.2532 38.0763C19.0672 38.63 19.1105 38.7534 19.1105 40.4927C19.1105 40.4403 19.1085 40.4165 19.1068 40.4165C19.0918 40.4165 19.1034 42.2857 20.777 42.8399C21.1901 42.9767 24.9242 43.0145 27.8837 43.0145C29.7663 43.0145 31.336 42.9992 31.5367 42.9842C32.6348 42.9025 33.4559 42.2072 33.7419 41.3491C33.9236 40.8036 33.8854 40.7355 33.8854 38.8626C33.8854 38.9169 33.8877 38.9416 33.8897 38.9416C33.9065 38.9416 33.902 37.1597 32.2957 36.6086C31.915 36.4781 31.7368 36.4574 31.1005 36.4574C30.8045 36.4574 30.4094 36.4618 29.8487 36.4618H29.8388H29.838H29.8372V36.461H29.8363V36.4601V36.4594L29.8355 36.4494V18.0115H35.6864C35.7231 20.2289 37.4873 21.9704 39.5862 22.0565C39.6695 22.0599 39.7613 22.0633 39.8587 22.0633C40.3651 22.0633 41.0233 21.9715 41.4169 21.314C41.4964 21.1811 41.5921 21.0218 41.6355 20.8165C41.7363 20.3389 41.6878 11.4075 41.6355 11.2316ZM40.6205 20.6226C40.605 20.6624 40.567 20.7259 40.5319 20.7844C40.4539 20.9149 40.3436 21.032 39.8587 21.032C39.7763 21.032 39.6988 21.029 39.6284 21.0261C38.0232 20.9602 36.7446 19.6285 36.7175 17.9944L36.7007 16.9802H35.6864H29.8355H28.8043V18.0115V36.4494L28.805 36.5011L28.8051 36.5015L28.8059 37.4922H28.8174V37.4931H29.8487C30.1757 37.4931 30.4468 37.4916 30.675 37.4903L31.1005 37.4886C31.6826 37.4886 31.7306 37.5051 31.961 37.5841C32.7498 37.8547 32.8476 38.6716 32.8597 38.8626H32.8542C32.8542 39.1845 32.8553 39.4534 32.8562 39.6808C32.8606 40.7317 32.8588 40.7371 32.7635 41.0231C32.59 41.5437 32.0784 41.9098 31.463 41.9556C31.2778 41.9672 29.8265 41.9833 27.8837 41.9833C23.7512 41.9833 21.4995 41.9158 21.0625 41.8475C20.2569 41.5553 20.1515 40.6993 20.1378 40.4927H20.1418C20.1418 40.1709 20.1403 39.904 20.139 39.6792C20.1336 38.694 20.1391 38.6777 20.2308 38.4047C20.3997 37.9017 20.89 37.5461 21.4833 37.4943L21.5278 37.4931H23.1604L24.1916 37.4848V36.4535V18.0247L24.1909 16.9934H24.1826V16.9835H23.5727L23.571 16.9819H23.5677L23.5668 16.9811H23.3768L23.3734 16.9795L23.1283 16.9802L17.3063 16.9984L16.3293 17.0015L16.2796 17.9772L16.2698 18.1681C16.0976 20.0498 14.4216 21.0517 13.2733 21.0517C12.5322 21.0517 12.3929 20.6843 12.3515 20.5124C12.3451 20.4551 12.3427 20.4212 12.3422 20.4114C12.3422 17.8768 12.3402 16.0675 12.3388 14.7699C12.3363 12.51 12.3354 11.6643 12.3535 11.52L12.3706 11.4432C12.3994 11.3054 12.5661 11.0413 12.9907 11.0178C13.1335 11.017 14.059 11.0167 15.4924 11.0167H15.4959C22.2363 11.0167 40.0951 11.0237 40.1711 11.0237C40.2212 11.0256 40.4825 11.1071 40.6169 11.4394C40.6627 12.5063 40.6904 19.7677 40.6205 20.6226Z" fill="white"/>
</g>
<defs>
<clipPath id="clip0_35_76">
<rect width="33" height="33" fill="white" transform="translate(10 10)"/>
</clipPath>
</defs>
</svg>
