<svg width="53" height="53" viewBox="0 0 53 53" fill="none" xmlns="http://www.w3.org/2000/svg">
<g clip-path="url(#clip0_35_80)">
<path d="M33.7324 21.9473C33.6461 21.6669 33.4103 21.4582 33.1214 21.4064L29.7155 20.7958L28.1753 17.6969C28.0447 17.4342 27.7784 17.2664 27.4849 17.2618C27.1938 17.2605 26.9204 17.4171 26.7817 17.6758L25.1484 20.7264L21.7253 21.2337C21.4352 21.2767 21.1932 21.4781 21.0983 21.7559C21.0034 22.0335 21.0714 22.3408 21.2747 22.5525L23.6713 25.0485L23.0959 28.4607C23.047 28.75 23.1639 29.0423 23.3987 29.2184C23.6332 29.3945 23.9468 29.4247 24.2109 29.2969L27.3255 27.7889L30.3929 29.3906C30.5071 29.4502 30.6316 29.4797 30.7558 29.4797C30.9145 29.4797 31.0725 29.4316 31.2072 29.3368C31.4471 29.168 31.5727 28.8793 31.5326 28.5886L31.0609 25.1606L33.5319 22.7382C33.7415 22.5328 33.8189 22.2277 33.7324 21.9473ZM29.6814 24.3167C29.5042 24.4906 29.4196 24.7377 29.4535 24.9836L29.7719 27.2971L27.7018 26.2162C27.5881 26.1568 27.4636 26.127 27.3388 26.127C27.222 26.127 27.1051 26.1532 26.997 26.2055L24.895 27.2233L25.2833 24.9205C25.3246 24.6757 25.2476 24.4261 25.0757 24.247L23.4583 22.5624L25.7685 22.22C26.0141 22.1836 26.2277 22.0332 26.3449 21.8145L27.4472 19.7556L28.4867 21.847C28.5971 22.0691 28.8062 22.2259 29.0505 22.2698L31.3491 22.6819L29.6814 24.3167Z" fill="white"/>
<path d="M50.5727 30.8112L52.9818 19.8411C53.0327 19.6091 52.9758 19.3665 52.827 19.1815C52.6783 18.9964 52.4534 18.8888 52.2159 18.8888H43.2723V12.0722C43.2723 11.0762 42.4621 10.2661 41.4664 10.2661H11.5032C10.5074 10.2661 9.69724 11.0763 9.69724 12.0722V18.8888H0.784235C0.54677 18.8888 0.322038 18.9964 0.173079 19.1815C0.0241197 19.3666 -0.0327104 19.6091 0.0183228 19.8411L2.42755 30.8112L0.0184264 41.7813C-0.0325033 42.0133 0.0244303 42.256 0.173182 42.4409C0.321934 42.626 0.54677 42.7337 0.784339 42.7337H15.7871C15.8228 42.7337 15.8579 42.7305 15.8923 42.7258C15.9004 42.7248 15.9084 42.7235 15.9164 42.7222C15.9503 42.7165 15.984 42.7095 16.0164 42.6995C16.0165 42.6995 16.0166 42.6994 16.0167 42.6994C16.0503 42.6891 16.0827 42.6761 16.1144 42.6614C16.1206 42.6586 16.1265 42.6555 16.1327 42.6526C16.1627 42.6379 16.1919 42.6218 16.2195 42.6035C16.2205 42.6028 16.2215 42.6022 16.2226 42.6016C16.2508 42.5827 16.2773 42.5615 16.3029 42.5393C16.309 42.5341 16.3148 42.5286 16.3207 42.5231C16.3448 42.5007 16.368 42.4772 16.3891 42.4518C16.3898 42.451 16.3906 42.4503 16.3913 42.4494C16.4133 42.4227 16.4331 42.3943 16.4515 42.3648C16.4553 42.3588 16.4589 42.3529 16.4625 42.3467C16.4982 42.286 16.526 42.2201 16.5444 42.1504C16.5461 42.1437 16.5478 42.1373 16.5495 42.1307C16.5575 42.097 16.5638 42.0625 16.5675 42.0272C16.5677 42.0254 16.5676 42.0237 16.5678 42.0218C16.57 41.998 16.5714 41.9738 16.5714 41.9493V37.3773H36.4292V41.9493C36.4292 41.9746 36.4307 41.9996 36.4329 42.0242C36.4331 42.0255 36.4329 42.0269 36.4332 42.0281C36.4366 42.0632 36.4432 42.0974 36.4512 42.131C36.4528 42.138 36.4546 42.1448 36.4566 42.1517C36.4751 42.2211 36.5026 42.2865 36.5382 42.3468C36.5419 42.3533 36.5458 42.3594 36.5496 42.3657C36.5679 42.3948 36.5875 42.423 36.6093 42.4494C36.6107 42.4511 36.6123 42.4525 36.6137 42.4542C36.6343 42.4785 36.6565 42.5013 36.6798 42.5229C36.6859 42.5286 36.6919 42.5342 36.6983 42.5397C36.7235 42.5619 36.7499 42.5828 36.7781 42.6015C36.7796 42.6025 36.7812 42.6034 36.7827 42.6044C36.81 42.6223 36.8384 42.638 36.8678 42.6526C36.8741 42.6556 36.8802 42.6587 36.8866 42.6616C36.918 42.676 36.9503 42.6892 36.9839 42.6994C36.9843 42.6995 36.9846 42.6996 36.985 42.6997C37.0171 42.7095 37.0503 42.7166 37.0841 42.7222C37.0921 42.7235 37.1001 42.7248 37.1082 42.7258C37.1427 42.7304 37.1775 42.7337 37.2133 42.7337H52.216C52.4534 42.7337 52.6782 42.626 52.8271 42.4409C52.976 42.2559 53.0329 42.0133 52.9819 41.7813L50.5727 30.8112ZM1.75935 41.1651L3.99622 30.9794C4.02055 30.8685 4.02055 30.7537 3.99622 30.643L1.75925 20.457H9.69693V36.5932C9.69693 36.6017 9.69797 36.6099 9.69817 36.6182C9.69869 36.6351 9.6991 36.6517 9.70066 36.6685C9.7019 36.6812 9.70407 36.6935 9.70583 36.7062C9.7077 36.7189 9.70915 36.7316 9.71173 36.7444C9.71432 36.7578 9.71795 36.7711 9.72126 36.7842C9.72416 36.7957 9.72664 36.8073 9.73016 36.8188C9.73399 36.8318 9.73886 36.8445 9.74331 36.8572C9.74734 36.8686 9.75117 36.88 9.75573 36.8913C9.7607 36.9034 9.76649 36.915 9.77208 36.9268C9.77747 36.9382 9.78254 36.9496 9.78854 36.9607C9.79465 36.9721 9.80148 36.9831 9.80811 36.9942C9.81463 37.005 9.82074 37.016 9.82778 37.0266C9.83564 37.0384 9.84434 37.0495 9.85283 37.0609C9.85966 37.07 9.86597 37.0794 9.87322 37.0883C9.88502 37.1026 9.89765 37.1163 9.91048 37.1298C9.91504 37.1346 9.91918 37.14 9.92394 37.1449L9.92643 37.1474L9.92653 37.1475L13.9062 41.1651H1.75935V41.1651ZM15.0028 40.0436L12.3617 37.3774H15.0028V40.0436ZM11.2654 35.809V12.072C11.2654 11.9433 11.3742 11.8343 11.5031 11.8343H13.7515V18.0459C13.7515 18.479 14.1026 18.8301 14.5357 18.8301C14.9689 18.8301 15.3198 18.4789 15.3198 18.0459V11.8343H41.4664C41.5952 11.8343 41.7041 11.9432 41.7041 12.072V35.809H11.2654ZM37.9975 37.3774H40.6154L37.9975 40.0357V37.3774ZM39.0863 41.1653L43.047 37.1435C43.053 37.1374 43.0579 37.131 43.0637 37.1248C43.0749 37.1127 43.0862 37.1006 43.0967 37.0877C43.1043 37.0784 43.111 37.0686 43.1181 37.059C43.1262 37.0481 43.1344 37.0373 43.142 37.0259C43.1492 37.0151 43.1556 37.0038 43.1623 36.9926C43.1687 36.9818 43.1752 36.9712 43.1812 36.9601C43.1873 36.9486 43.1926 36.9368 43.1981 36.9251C43.2035 36.9136 43.209 36.9023 43.2137 36.8905C43.2185 36.8789 43.2224 36.8671 43.2267 36.8553C43.231 36.843 43.2356 36.8308 43.2393 36.8181C43.2428 36.8062 43.2456 36.7941 43.2486 36.782C43.2517 36.7692 43.2553 36.7566 43.2577 36.7435C43.2602 36.7304 43.2619 36.717 43.2638 36.7038C43.2655 36.6918 43.2676 36.6799 43.2687 36.6677C43.2703 36.6513 43.2707 36.6351 43.2712 36.6186C43.2714 36.61 43.2724 36.6017 43.2724 36.5931V20.4569H51.2409L49.0039 30.6429C48.9796 30.7537 48.9796 30.8685 49.0039 30.9793L51.2409 41.1652H39.0863V41.1653Z" fill="white"/>
<path d="M14.5356 24.9608C14.1024 24.9608 13.7515 25.3119 13.7515 25.7449V33.25C13.7515 33.6831 14.1026 34.0342 14.5356 34.0342C14.9688 34.0342 15.3197 33.683 15.3197 33.25V25.7449C15.3197 25.3118 14.9687 24.9608 14.5356 24.9608Z" fill="white"/>
<path d="M37.2133 26.8243C36.7801 26.8243 36.4292 27.1755 36.4292 27.6085V32.2607C36.4292 32.6938 36.7802 33.0448 37.2133 33.0448C37.6465 33.0448 37.9975 32.6937 37.9975 32.2607V27.6085C37.9976 27.1754 37.6465 26.8243 37.2133 26.8243Z" fill="white"/>
</g>
<defs>
<clipPath id="clip0_35_80">
<rect width="53" height="53" fill="white"/>
</clipPath>
</defs>
</svg>
