<svg width="53" height="53" viewBox="0 0 53 53" fill="none" xmlns="http://www.w3.org/2000/svg">
<path d="M9.15465 21.6243V20.6016L14.0126 18.3572V19.6179L10.5609 21.0987L10.6 21.0312V21.1946L10.5609 21.1271L14.0126 22.608V23.8686L9.15465 21.6243ZM16.8952 20.804V24H15.6097V16.7273H16.8668V19.4723H16.9308C17.0586 19.1645 17.2563 18.9219 17.5238 18.7443C17.7937 18.5644 18.137 18.4744 18.5536 18.4744C18.9324 18.4744 19.2627 18.5537 19.5444 18.7124C19.8261 18.871 20.0439 19.103 20.1978 19.4084C20.354 19.7138 20.4322 20.0866 20.4322 20.527V24H19.1467V20.7259C19.1467 20.3589 19.052 20.0736 18.8626 19.87C18.6755 19.6641 18.4128 19.5611 18.0742 19.5611C17.8469 19.5611 17.6433 19.6108 17.4634 19.7102C17.2859 19.8073 17.1462 19.9482 17.0444 20.1328C16.945 20.3175 16.8952 20.5412 16.8952 20.804ZM24.1573 24.1065C23.6104 24.1065 23.1381 23.9929 22.7404 23.7656C22.3451 23.536 22.0408 23.2116 21.8278 22.7926C21.6147 22.3712 21.5082 21.8752 21.5082 21.3047C21.5082 20.7436 21.6147 20.2512 21.8278 19.8274C22.0432 19.4013 22.3439 19.0698 22.7298 18.8331C23.1156 18.594 23.569 18.4744 24.0898 18.4744C24.426 18.4744 24.7433 18.5289 25.0415 18.6378C25.3422 18.7443 25.6074 18.91 25.837 19.1349C26.069 19.3598 26.2513 19.6463 26.3839 19.9943C26.5165 20.34 26.5827 20.7519 26.5827 21.2301V21.6243H22.1119V20.7578H25.3505C25.3481 20.5116 25.2949 20.2926 25.1907 20.1009C25.0865 19.9067 24.9409 19.754 24.7539 19.6428C24.5692 19.5315 24.3538 19.4759 24.1076 19.4759C23.8448 19.4759 23.614 19.5398 23.4151 19.6676C23.2163 19.7931 23.0612 19.9588 22.9499 20.1648C22.841 20.3684 22.7854 20.5921 22.783 20.8359V21.5923C22.783 21.9096 22.841 22.1818 22.957 22.4091C23.073 22.634 23.2352 22.8068 23.4435 22.9276C23.6519 23.0459 23.8957 23.1051 24.1751 23.1051C24.3621 23.1051 24.5314 23.0791 24.6829 23.027C24.8344 22.9725 24.9658 22.8932 25.0771 22.7891C25.1883 22.6849 25.2724 22.5559 25.3292 22.402L26.5295 22.5369C26.4537 22.8542 26.3093 23.1312 26.0962 23.3679C25.8855 23.6023 25.6156 23.7846 25.2866 23.9148C24.9575 24.0426 24.5811 24.1065 24.1573 24.1065ZM29.2399 24.1101C28.8942 24.1101 28.5829 24.0485 28.3059 23.9254C28.0313 23.8 27.8135 23.6153 27.6525 23.3714C27.4939 23.1276 27.4146 22.8269 27.4146 22.4695C27.4146 22.1617 27.4714 21.9072 27.585 21.706C27.6987 21.5047 27.8538 21.3438 28.0502 21.223C28.2467 21.1023 28.4681 21.0111 28.7143 20.9496C28.9629 20.8857 29.2198 20.8395 29.4849 20.8111C29.8045 20.7779 30.0637 20.7483 30.2626 20.7223C30.4615 20.6939 30.6059 20.6513 30.6958 20.5945C30.7882 20.5353 30.8343 20.4441 30.8343 20.321V20.2997C30.8343 20.0322 30.755 19.825 30.5964 19.6783C30.4378 19.5315 30.2093 19.4581 29.911 19.4581C29.5962 19.4581 29.3464 19.5268 29.1618 19.6641C28.9795 19.8014 28.8564 19.9635 28.7924 20.1506L27.5922 19.9801C27.6868 19.6487 27.8431 19.3717 28.0609 19.1491C28.2787 18.9242 28.545 18.7562 28.8599 18.6449C29.1748 18.5312 29.5228 18.4744 29.9039 18.4744C30.1667 18.4744 30.4283 18.5052 30.6887 18.5668C30.9492 18.6283 31.1871 18.7301 31.4025 18.8722C31.618 19.0118 31.7908 19.2024 31.921 19.4439C32.0536 19.6854 32.1199 19.9872 32.1199 20.3494V24H30.8841V23.2507H30.8414C30.7633 23.4022 30.6532 23.5443 30.5112 23.6768C30.3715 23.8071 30.1951 23.9124 29.9821 23.9929C29.7714 24.071 29.524 24.1101 29.2399 24.1101ZM29.5737 23.1655C29.8317 23.1655 30.0555 23.1146 30.2449 23.0128C30.4342 22.9086 30.5798 22.7713 30.6816 22.6009C30.7858 22.4304 30.8379 22.2446 30.8379 22.0433V21.4006C30.7976 21.4337 30.729 21.4645 30.6319 21.4929C30.5372 21.5213 30.4307 21.5462 30.3123 21.5675C30.194 21.5888 30.0768 21.6077 29.9608 21.6243C29.8448 21.6409 29.7441 21.6551 29.6589 21.6669C29.4672 21.6929 29.2955 21.7356 29.144 21.7947C28.9925 21.8539 28.8729 21.9368 28.7853 22.0433C28.6977 22.1475 28.6539 22.2824 28.6539 22.4482C28.6539 22.6849 28.7404 22.8636 28.9132 22.9844C29.086 23.1051 29.3062 23.1655 29.5737 23.1655ZM35.4366 24.0959C35.0081 24.0959 34.6246 23.9858 34.286 23.7656C33.9475 23.5455 33.68 23.2259 33.4835 22.8068C33.287 22.3878 33.1887 21.8788 33.1887 21.2798C33.1887 20.6738 33.2882 20.1624 33.487 19.7457C33.6883 19.3267 33.9593 19.0107 34.3002 18.7976C34.6412 18.5821 35.0211 18.4744 35.4402 18.4744C35.7598 18.4744 36.0225 18.5289 36.2285 18.6378C36.4345 18.7443 36.5978 18.8733 36.7186 19.0249C36.8393 19.174 36.9328 19.3149 36.9991 19.4474H37.0524V16.7273H38.3414V24H37.0772V23.1406H36.9991C36.9328 23.2732 36.8369 23.4141 36.7115 23.5632C36.586 23.71 36.4203 23.8355 36.2143 23.9396C36.0083 24.0438 35.7491 24.0959 35.4366 24.0959ZM35.7953 23.0412C36.0675 23.0412 36.2995 22.9678 36.4913 22.821C36.6831 22.6719 36.8287 22.4647 36.9281 22.1996C37.0275 21.9344 37.0772 21.6255 37.0772 21.2727C37.0772 20.92 37.0275 20.6134 36.9281 20.353C36.831 20.0926 36.6866 19.8902 36.4949 19.7457C36.3055 19.6013 36.0723 19.5291 35.7953 19.5291C35.5088 19.5291 35.2697 19.6037 35.0779 19.7528C34.8862 19.902 34.7418 20.108 34.6447 20.3707C34.5476 20.6335 34.4991 20.9342 34.4991 21.2727C34.4991 21.6136 34.5476 21.9179 34.6447 22.1854C34.7441 22.4505 34.8897 22.66 35.0815 22.8139C35.2756 22.9654 35.5136 23.0412 35.7953 23.0412ZM44.8427 21.6243L39.9847 23.8686V22.608L43.4364 21.1271L43.3974 21.1946V21.0312L43.4364 21.0987L39.9847 19.6179V18.3572L44.8427 20.6016V21.6243ZM7.26012 33.6243V32.6016L12.1181 30.3572V31.6179L8.66637 33.0987L8.70543 33.0312V33.1946L8.66637 33.1271L12.1181 34.608V35.8686L7.26012 33.6243ZM16.6839 28.3864L14.3402 37.0938H13.2145L15.5582 28.3864H16.6839ZM18.7898 32.804V36H17.5043V28.7273H18.7614V31.4723H18.8253C18.9531 31.1645 19.1508 30.9219 19.4183 30.7443C19.6882 30.5644 20.0315 30.4744 20.4482 30.4744C20.8269 30.4744 21.1572 30.5537 21.4389 30.7124C21.7206 30.871 21.9384 31.103 22.0923 31.4084C22.2486 31.7138 22.3267 32.0866 22.3267 32.527V36H21.0412V32.7259C21.0412 32.3589 20.9465 32.0736 20.7571 31.87C20.5701 31.6641 20.3073 31.5611 19.9688 31.5611C19.7415 31.5611 19.5379 31.6108 19.358 31.7102C19.1804 31.8073 19.0407 31.9482 18.9389 32.1328C18.8395 32.3175 18.7898 32.5412 18.7898 32.804ZM26.0518 36.1065C25.505 36.1065 25.0327 35.9929 24.6349 35.7656C24.2396 35.536 23.9354 35.2116 23.7223 34.7926C23.5092 34.3712 23.4027 33.8752 23.4027 33.3047C23.4027 32.7436 23.5092 32.2512 23.7223 31.8274C23.9377 31.4013 24.2384 31.0698 24.6243 30.8331C25.0102 30.594 25.4635 30.4744 25.9844 30.4744C26.3205 30.4744 26.6378 30.5289 26.9361 30.6378C27.2367 30.7443 27.5019 30.91 27.7315 31.1349C27.9635 31.3598 28.1458 31.6463 28.2784 31.9943C28.411 32.34 28.4773 32.7519 28.4773 33.2301V33.6243H24.0064V32.7578H27.245C27.2427 32.5116 27.1894 32.2926 27.0852 32.1009C26.9811 31.9067 26.8355 31.754 26.6484 31.6428C26.4638 31.5315 26.2483 31.4759 26.0021 31.4759C25.7393 31.4759 25.5085 31.5398 25.3097 31.6676C25.1108 31.7931 24.9557 31.9588 24.8445 32.1648C24.7356 32.3684 24.6799 32.5921 24.6776 32.8359V33.5923C24.6776 33.9096 24.7356 34.1818 24.8516 34.4091C24.9676 34.634 25.1297 34.8068 25.3381 34.9276C25.5464 35.0459 25.7902 35.1051 26.0696 35.1051C26.2566 35.1051 26.4259 35.0791 26.5774 35.027C26.7289 34.9725 26.8603 34.8932 26.9716 34.7891C27.0829 34.6849 27.1669 34.5559 27.2237 34.402L28.424 34.5369C28.3482 34.8542 28.2038 35.1312 27.9908 35.3679C27.7801 35.6023 27.5102 35.7846 27.1811 35.9148C26.852 36.0426 26.4756 36.1065 26.0518 36.1065ZM31.1344 36.1101C30.7888 36.1101 30.4775 36.0485 30.2005 35.9254C29.9258 35.8 29.708 35.6153 29.5471 35.3714C29.3884 35.1276 29.3091 34.8269 29.3091 34.4695C29.3091 34.1617 29.3659 33.9072 29.4796 33.706C29.5932 33.5047 29.7483 33.3438 29.9448 33.223C30.1413 33.1023 30.3626 33.0111 30.6088 32.9496C30.8574 32.8857 31.1143 32.8395 31.3794 32.8111C31.699 32.7779 31.9583 32.7483 32.1571 32.7223C32.356 32.6939 32.5004 32.6513 32.5904 32.5945C32.6827 32.5353 32.7289 32.4441 32.7289 32.321V32.2997C32.7289 32.0322 32.6496 31.825 32.4909 31.6783C32.3323 31.5315 32.1039 31.4581 31.8056 31.4581C31.4907 31.4581 31.2409 31.5268 31.0563 31.6641C30.874 31.8014 30.7509 31.9635 30.687 32.1506L29.4867 31.9801C29.5814 31.6487 29.7376 31.3717 29.9554 31.1491C30.1732 30.9242 30.4396 30.7562 30.7544 30.6449C31.0693 30.5312 31.4173 30.4744 31.7985 30.4744C32.0613 30.4744 32.3229 30.5052 32.5833 30.5668C32.8437 30.6283 33.0816 30.7301 33.2971 30.8722C33.5125 31.0118 33.6853 31.2024 33.8155 31.4439C33.9481 31.6854 34.0144 31.9872 34.0144 32.3494V36H32.7786V35.2507H32.736C32.6578 35.4022 32.5478 35.5443 32.4057 35.6768C32.266 35.8071 32.0897 35.9124 31.8766 35.9929C31.6659 36.071 31.4185 36.1101 31.1344 36.1101ZM31.4682 35.1655C31.7263 35.1655 31.95 35.1146 32.1394 35.0128C32.3288 34.9086 32.4744 34.7713 32.5762 34.6009C32.6803 34.4304 32.7324 34.2446 32.7324 34.0433V33.4006C32.6922 33.4337 32.6235 33.4645 32.5265 33.4929C32.4318 33.5213 32.3252 33.5462 32.2069 33.5675C32.0885 33.5888 31.9713 33.6077 31.8553 33.6243C31.7393 33.6409 31.6387 33.6551 31.5534 33.6669C31.3617 33.6929 31.19 33.7356 31.0385 33.7947C30.887 33.8539 30.7675 33.9368 30.6799 34.0433C30.5923 34.1475 30.5485 34.2824 30.5485 34.4482C30.5485 34.6849 30.6349 34.8636 30.8077 34.9844C30.9805 35.1051 31.2007 35.1655 31.4682 35.1655ZM37.3311 36.0959C36.9026 36.0959 36.5191 35.9858 36.1806 35.7656C35.842 35.5455 35.5745 35.2259 35.378 34.8068C35.1815 34.3878 35.0833 33.8788 35.0833 33.2798C35.0833 32.6738 35.1827 32.1624 35.3816 31.7457C35.5828 31.3267 35.8539 31.0107 36.1948 30.7976C36.5357 30.5821 36.9157 30.4744 37.3347 30.4744C37.6543 30.4744 37.9171 30.5289 38.123 30.6378C38.329 30.7443 38.4924 30.8733 38.6131 31.0249C38.7338 31.174 38.8274 31.3149 38.8936 31.4474H38.9469V28.7273H40.236V36H38.9718V35.1406H38.8936C38.8274 35.2732 38.7315 35.4141 38.606 35.5632C38.4805 35.71 38.3148 35.8355 38.1088 35.9396C37.9029 36.0438 37.6436 36.0959 37.3311 36.0959ZM37.6898 35.0412C37.9621 35.0412 38.1941 34.9678 38.3858 34.821C38.5776 34.6719 38.7232 34.4647 38.8226 34.1996C38.9221 33.9344 38.9718 33.6255 38.9718 33.2727C38.9718 32.92 38.9221 32.6134 38.8226 32.353C38.7256 32.0926 38.5811 31.8902 38.3894 31.7457C38.2 31.6013 37.9668 31.5291 37.6898 31.5291C37.4034 31.5291 37.1642 31.6037 36.9725 31.7528C36.7807 31.902 36.6363 32.108 36.5392 32.3707C36.4422 32.6335 36.3936 32.9342 36.3936 33.2727C36.3936 33.6136 36.4422 33.9179 36.5392 34.1854C36.6387 34.4505 36.7843 34.66 36.976 34.8139C37.1702 34.9654 37.4081 35.0412 37.6898 35.0412ZM46.7372 33.6243L41.8793 35.8686V34.608L45.331 33.1271L45.2919 33.1946V33.0312L45.331 33.0987L41.8793 31.6179V30.3572L46.7372 32.6016V33.6243Z" fill="white"/>
</svg>
