<svg width="61" height="69" viewBox="0 0 61 69" fill="none" xmlns="http://www.w3.org/2000/svg">
<path d="M60.6785 28.4364L34.2274 1.98532C33.2328 0.990699 31.9097 0.440918 30.5022 0.440918C29.0946 0.440918 27.7715 0.988418 26.7769 1.98532L21.0099 7.75232H12.2613V16.4986L0.0976562 28.66V68.5613H60.9067V28.6645L60.6808 28.4387L60.6785 28.4364ZM58.16 29.3603L48.7407 38.7796V19.9433L58.16 29.3626V29.3603ZM28.4947 3.70311C29.5668 2.63092 31.4352 2.63092 32.5074 3.70311L36.5543 7.75004H24.4477L28.4947 3.70311ZM38.9838 10.1819L46.3089 17.5092V41.2114L40.6765 46.8438L34.2229 40.3902C33.2282 39.3955 31.9051 38.8458 30.4976 38.8458C29.0901 38.8458 27.7669 39.3955 26.7723 40.3902L20.2228 46.9374L14.6885 41.403V10.1841H38.9816L38.9838 10.1819ZM3.99175 28.2037L12.259 19.9365V38.9689L2.74162 29.4516L3.99175 28.2015V28.2037ZM2.52719 34.6323V32.6795L18.5028 48.6551L18.3226 48.8376L18.3203 48.8354L2.52719 64.6284V34.6323ZM4.46853 66.1272L5.77569 64.8201H5.78025L28.4947 42.1079C29.5668 41.0358 31.4352 41.0358 32.5074 42.1079L56.5312 66.1272H4.46853ZM58.4726 33.04V64.6307L42.3989 48.5639L58.4726 32.4902V33.0423V33.04Z" fill="#6D5BD0"/>
</svg>
