<svg width="73" height="73" viewBox="0 0 73 73" fill="none" xmlns="http://www.w3.org/2000/svg">
<path d="M66.6785 30.4364L40.2274 3.98532C39.2328 2.9907 37.9097 2.44092 36.5022 2.44092C35.0946 2.44092 33.7715 2.98842 32.7769 3.98532L27.0099 9.75232H18.2613V18.4986L6.09766 30.66V70.5613H66.9067V30.6645L66.6808 30.4387L66.6785 30.4364ZM64.16 31.3603L54.7407 40.7796V21.9433L64.16 31.3626V31.3603ZM34.4947 5.70311C35.5668 4.63092 37.4352 4.63092 38.5074 5.70311L42.5543 9.75004H30.4477L34.4947 5.70311V5.70311ZM44.9838 12.1819L52.3089 19.5092V43.2114L46.6765 48.8438L40.2229 42.3902C39.2282 41.3955 37.9051 40.8458 36.4976 40.8458C35.0901 40.8458 33.7669 41.3955 32.7723 42.3902L26.2228 48.9374L20.6885 43.403V12.1841H44.9816L44.9838 12.1819ZM9.99175 30.2037L18.259 21.9365V40.9689L8.74162 31.4516L9.99175 30.2015V30.2037ZM8.52719 36.6323V34.6795L24.5028 50.6551L24.3226 50.8376L24.3203 50.8354L8.52719 66.6285V36.6323V36.6323ZM10.4685 68.1272L11.7757 66.8201H11.7802L34.4947 44.1079C35.5668 43.0358 37.4352 43.0358 38.5074 44.1079L62.5312 68.1272H10.4685V68.1272ZM64.4726 35.04V66.6307L48.3989 50.5639L64.4726 34.4902V35.0423V35.04Z" fill="#6D5BD0"/>
<path d="M27.9863 19.4796H45.0136V21.9114H27.9863V19.4796V19.4796Z" fill="#6D5BD0"/>
<path d="M27.9863 34.0751H45.0136V36.5069H27.9863V34.0751V34.0751Z" fill="#6D5BD0"/>
<path d="M27.9863 26.7773H40.1477V29.2092H27.9863V26.7773Z" fill="#6D5BD0"/>
</svg>
