<svg width="25" height="25" viewBox="0 0 25 25" fill="none" xmlns="http://www.w3.org/2000/svg">
<path d="M23.7387 10H21.775C21.5153 9.99453 21.2633 9.91134 21.0514 9.76115C20.8394 9.61097 20.6774 9.4007 20.5862 9.1575L20.58 9.14125C20.4742 8.90475 20.4414 8.64202 20.486 8.38678C20.5305 8.13153 20.6503 7.89542 20.83 7.70875L22.2175 6.32125C22.4541 6.0845 22.5871 5.76348 22.5871 5.42875C22.5871 5.09402 22.4541 4.773 22.2175 4.53625L20.4675 2.78625C20.2308 2.54962 19.9097 2.41669 19.575 2.41669C19.2403 2.41669 18.9192 2.54962 18.6825 2.78625L17.295 4.17375C17.1083 4.35343 16.8722 4.47323 16.617 4.51778C16.3617 4.56232 16.099 4.52958 15.8625 4.42375H15.8463C15.6007 4.33232 15.3885 4.16881 15.2375 3.95467C15.0865 3.74053 15.0037 3.48576 15 3.22375V1.26125C15 0.926746 14.8671 0.605942 14.6306 0.369412C14.3941 0.132881 14.0733 0 13.7388 0H11.2612C10.9267 0 10.6059 0.132881 10.3694 0.369412C10.1329 0.605942 10 0.926746 10 1.26125V3.22375C9.99461 3.4836 9.91146 3.73586 9.76129 3.94798C9.61111 4.1601 9.4008 4.32234 9.1575 4.41375H9.14125C8.90475 4.51958 8.64202 4.55232 8.38678 4.50777C8.13153 4.46323 7.89542 4.34343 7.70875 4.16375L6.32125 2.77625C6.0845 2.53962 5.76348 2.40669 5.42875 2.40669C5.09402 2.40669 4.773 2.53962 4.53625 2.77625L2.78625 4.52625C2.54962 4.763 2.41669 5.08402 2.41669 5.41875C2.41669 5.75348 2.54962 6.0745 2.78625 6.31125L4.17375 7.69875C4.35343 7.88543 4.47323 8.12153 4.51778 8.37678C4.56232 8.63202 4.52958 8.89475 4.42375 9.13125V9.1475C4.33355 9.39413 4.17071 9.60763 3.9567 9.75982C3.74269 9.91201 3.48757 9.99576 3.225 10H1.26125C0.926746 10 0.605942 10.1329 0.369412 10.3694C0.132881 10.6059 0 10.9267 0 11.2612V13.7388C0 14.0733 0.132881 14.3941 0.369412 14.6306C0.605942 14.8671 0.926746 15 1.26125 15H3.225C3.48467 15.0055 3.73674 15.0887 3.94865 15.2388C4.16056 15.389 4.32256 15.5993 4.41375 15.8425V15.8588C4.51958 16.0953 4.55232 16.358 4.50777 16.6132C4.46323 16.8685 4.34343 17.1046 4.16375 17.2913L2.77625 18.6788C2.53962 18.9155 2.40669 19.2365 2.40669 19.5712C2.40669 19.906 2.53962 20.227 2.77625 20.4638L4.52625 22.2137C4.763 22.4504 5.08402 22.5833 5.41875 22.5833C5.75348 22.5833 6.0745 22.4504 6.31125 22.2137L7.69875 20.8262C7.88543 20.6466 8.12153 20.5268 8.37678 20.4822C8.63202 20.4377 8.89475 20.4704 9.13125 20.5763L9.1475 20.5825C9.39315 20.6723 9.60596 20.8342 9.75807 21.047C9.91018 21.2598 9.99451 21.5135 10 21.775V23.7387C10 24.0733 10.1329 24.3941 10.3694 24.6306C10.6059 24.8671 10.9267 25 11.2612 25H13.7388C13.9044 25 14.0684 24.9674 14.2214 24.904C14.3744 24.8406 14.5135 24.7477 14.6306 24.6306C14.7477 24.5135 14.8406 24.3744 14.904 24.2214C14.9674 24.0684 15 23.9044 15 23.7387V21.775C15.0055 21.5153 15.0887 21.2633 15.2388 21.0514C15.389 20.8394 15.5993 20.6774 15.8425 20.5862L15.8588 20.58C16.0953 20.4742 16.358 20.4414 16.6132 20.486C16.8685 20.5305 17.1046 20.6503 17.2913 20.83L18.6788 22.2175C18.9155 22.4541 19.2365 22.5871 19.5712 22.5871C19.906 22.5871 20.227 22.4541 20.4638 22.2175L22.2137 20.4675C22.4504 20.2308 22.5833 19.9097 22.5833 19.575C22.5833 19.2403 22.4504 18.9192 22.2137 18.6825L20.8262 17.295C20.6466 17.1083 20.5268 16.8722 20.4822 16.617C20.4377 16.3617 20.4704 16.099 20.5763 15.8625L20.5825 15.8463C20.6733 15.6018 20.8356 15.3903 21.0483 15.2394C21.261 15.0884 21.5142 15.005 21.775 15H23.7387C24.0733 15 24.3941 14.8671 24.6306 14.6306C24.8671 14.3941 25 14.0733 25 13.7388V11.2612C25 11.0956 24.9674 10.9316 24.904 10.7786C24.8406 10.6256 24.7477 10.4865 24.6306 10.3694C24.5135 10.2523 24.3744 10.1594 24.2214 10.096C24.0684 10.0326 23.9044 10 23.7387 10ZM12.5 16.25C11.7583 16.25 11.0333 16.0301 10.4166 15.618C9.79993 15.206 9.31928 14.6203 9.03545 13.9351C8.75162 13.2498 8.67736 12.4958 8.82205 11.7684C8.96675 11.041 9.3239 10.3728 9.84835 9.84835C10.3728 9.3239 11.041 8.96675 11.7684 8.82205C12.4958 8.67736 13.2498 8.75162 13.9351 9.03545C14.6203 9.31928 15.206 9.79993 15.618 10.4166C16.0301 11.0333 16.25 11.7583 16.25 12.5C16.25 13.4946 15.8549 14.4484 15.1517 15.1517C14.4484 15.8549 13.4946 16.25 12.5 16.25Z" fill="white"/>
</svg>
