<svg width="70" height="60" viewBox="0 0 70 60" fill="none" xmlns="http://www.w3.org/2000/svg">
<path d="M63.6569 7.79317H26.4055V6.36073C26.4055 3.19486 23.8389 0.628296 20.673 0.628296H6.34596C3.18009 0.628296 0.616211 3.19486 0.616211 6.36073V53.6419C0.616211 56.8078 3.18277 59.3744 6.34596 59.3744H63.6569C66.8228 59.3744 69.3893 56.8078 69.3893 53.6419V13.5229C69.3893 10.357 66.8228 7.79048 63.6569 7.79048V7.79317ZM3.4784 6.35805C3.4784 4.7778 4.76571 3.49317 6.34327 3.49317H20.6703C22.2506 3.49317 23.5352 4.7778 23.5352 6.35805V10.6554H63.6542C65.2345 10.6554 66.5191 11.94 66.5191 13.5202V16.3851H3.4784V6.35536V6.35805ZM63.6569 56.5068H6.34596C4.76571 56.5068 3.48109 55.2195 3.48109 53.6419V19.2554H66.5218V53.6419C66.5218 55.2222 65.2345 56.5068 63.6569 56.5068Z" fill="#6D5BD0"/>
</svg>
