<svg width="86" height="86" viewBox="0 0 86 86" fill="none" xmlns="http://www.w3.org/2000/svg">
<path d="M71.6569 20.7932H34.4055V19.3607C34.4055 16.1949 31.8389 13.6283 28.673 13.6283H14.346C11.1801 13.6283 8.61621 16.1949 8.61621 19.3607V66.6419C8.61621 69.8078 11.1828 72.3744 14.346 72.3744H71.6569C74.8228 72.3744 77.3893 69.8078 77.3893 66.6419V26.5229C77.3893 23.357 74.8228 20.7905 71.6569 20.7905V20.7932ZM11.4784 19.358C11.4784 17.7778 12.7657 16.4932 14.3433 16.4932H28.6703C30.2506 16.4932 31.5352 17.7778 31.5352 19.358V23.6554H71.6542C73.2345 23.6554 74.5191 24.94 74.5191 26.5202V29.3851H11.4784V19.3554V19.358ZM71.6569 69.5068H14.346C12.7657 69.5068 11.4811 68.2195 11.4811 66.6419V32.2554H74.5218V66.6419C74.5218 68.2222 73.2345 69.5068 71.6569 69.5068V69.5068Z" fill="#6D5BD0"/>
</svg>
