<svg width="14" height="8" viewBox="0 0 14 8" fill="none" xmlns="http://www.w3.org/2000/svg">
<path d="M6.64593 7.146L0.853925 1.354C0.783879 1.28413 0.736135 1.19505 0.716737 1.09804C0.697338 1.00102 0.707157 0.900431 0.74495 0.808999C0.782744 0.717567 0.846813 0.639402 0.929049 0.584397C1.01128 0.529393 1.10799 0.500021 1.20692 0.5H12.7929C12.8919 0.500021 12.9886 0.529393 13.0708 0.584397C13.153 0.639402 13.2171 0.717567 13.2549 0.808999C13.2927 0.900431 13.3025 1.00102 13.2831 1.09804C13.2637 1.19505 13.216 1.28413 13.1459 1.354L7.35292 7.146C7.25916 7.23974 7.13201 7.29239 6.99943 7.29239C6.86684 7.29239 6.73969 7.23974 6.64593 7.146Z" fill="#CCCCCC"/>
</svg>
